<svg style="height: 512px; width: 512px;" xmlns="http://www.w3.org/2000/svg" viewBox="0 0 512 512"><defs><filter id="shadow-1" height="300%" width="300%" x="-100%" y="-100%"><feFlood flood-color="rgba(255, 255, 255, 1)" result="flood"></feFlood><feComposite in="flood" in2="SourceGraphic" operator="atop" result="composite"></feComposite><feGaussianBlur in="composite" stdDeviation="15" result="blur"></feGaussianBlur><feOffset dx="3" dy="2" result="offset"></feOffset><feComposite in="SourceGraphic" in2="offset" operator="over"></feComposite></filter><linearGradient x1="0" x2="1" y1="1" y2="0" id="delapouite-dice-six-faces-four-gradient-0"><stop offset="0%" stop-color="#1351b0" stop-opacity="0.81"></stop><stop offset="100%" stop-color="#1351b0" stop-opacity="0.81"></stop></linearGradient><linearGradient x1="0" x2="1" y1="0" y2="1" id="delapouite-dice-six-faces-four-gradient-1"><stop offset="0%" stop-color="#5061cc" stop-opacity="0.92"></stop><stop offset="100%" stop-color="#4058f5" stop-opacity="1"></stop></linearGradient></defs><g class="" style="" transform="translate(3,0)"><path d="M74.5 36A38.5 38.5 0 0 0 36 74.5v363A38.5 38.5 0 0 0 74.5 476h363a38.5 38.5 0 0 0 38.5-38.5v-363A38.5 38.5 0 0 0 437.5 36h-363zm48.97 36.03A50 50 0 0 1 172 122a50 50 0 0 1-100 0 50 50 0 0 1 51.47-49.97zm268 0A50 50 0 0 1 440 122a50 50 0 0 1-100 0 50 50 0 0 1 51.47-49.97zm-268 268A50 50 0 0 1 172 390a50 50 0 0 1-100 0 50 50 0 0 1 51.47-49.97zm268 0A50 50 0 0 1 440 390a50 50 0 0 1-100 0 50 50 0 0 1 51.47-49.97z" fill="url(#delapouite-dice-six-faces-four-gradient-1)" stroke="#ffffff" stroke-opacity="1" stroke-width="5" transform="translate(486.4, 486.4) scale(-0.9, -0.9) rotate(0, 256, 256) skewX(0) skewY(0)" filter="url(#shadow-1)"></path></g></svg>